<svg viewBox="0 0 14 14" xmlns="http://www.w3.org/2000/svg"><path d="m10.605813 11.864853c-.6989284.540304-1.1376152.852591-1.3160618.936858-.2676765.123923-.5526984.185884-.8550687.185884-.4709086 0-.8600265-.1611-1.1673543-.4833-.3023725-.3222-.4535584-.746016-.4535584-1.27145 0-.332111.074357-.619613.2230614-.862504.2032332-.337068.5551742-.6543102 1.0558239-.9517282.5056041-.297413 1.3433215-.659267 2.5131579-1.085565v-.267674c-.000003-.6790934-.109055-1.1450435-.327155-1.3978524-.213152-.2527965-.5254382-.3791978-.9368587-.3792042-.312289.0000064-.5601349.084275-.7435385.2528029-.188365.1685413-.282546.361861-.2825443.5799592l.014871.4312521c-.0000015.228024-.059485.403994-.1784482.5279124-.1140107.123928-.2651966.185889-.4535584.185885-.1834074.000004-.3345933-.06443-.4535585-.19332-.114009-.1288754-.171014-.3048464-.1710132-.5279124-.0000008-.426289.218103-.8178857.6543135-1.17479.4362068-.3568914 1.0483858-.5353405 1.8365382-.5353475.6047411.000007 1.1004321.1016237 1.4870761.3048507.292453.1536709.50808.3940813.646879.7212318.08922.2131533.133832.649362.133837 1.3086274v2.3124032c-.000005.649358.01239 1.048389.03717 1.197096.02478.143752.06443.240412.118966.289979.05947.04957.126396.07436.200754.07436.07931 0 .148702-.01735.208193-.05205.104088-.06444.304843-.245366.602264-.542781v.41638c-.55518.743539-1.08557 1.115306-1.591171 1.115306-.242893 0-.436213-.08426-.579961-.252802-.143753-.168541-.218107-.456042-.22306-.86251m0-.4833v-2.5949472c-.7484989.297418-1.2317974.508088-1.4498984.632007-.3915996.218107-.6716649.446125-.8401977.6840542-.1685377.237935-.2528048.498174-.2528033.780716-.0000015.356901.1065727.654315.3197219.892246.2131449.232976.4585123.349462.7361015.349462.3767223 0 .8724158-.247844 1.487076-.743538m-.576145-1.5770352c-.1586804.07069-.4704943.179157-.5242363.2096952v.02097c-.053392.02974-.079697.05495-.1258166.08388l.2096947.524237c.082009.194779.140601.351694.1887246.503266.083345-.05199.1634867-.0866.2516336-.146786zm-.7011332-2.5822284c-.1347391.0000029-.17723.02481-.2180232.06229h-.015578c-.053838.04817-.046552.05373-.046719.07787v.01557.264742.01557c-.0000015.20591-.056547.4303824-.2024505.5917784h-.015578v.01557c-.035832.03652-.080704.06469-.1245812.09344.2978687-.1386.6498175-.280607 1.0589705-.4360464-.00567-.132944-.014549-.233313-.031148-.327035l-.1245775-.2958841c-.056846-.04547-.1304801-.07786-.2803151-.07786zm-2.3328052-6.2098812-4.0934665 9.5353708c-.3532673.837582-.6725804 1.412049-.9631685 1.685544-.1424469.136749-.4547741.227557-.9390894.31303v.337109h3.6600406v-.337109c-.558391-.039883-.9367118-.109741-1.1076438-.240792-.1652388-.136749-.2407946-.304951-.2407922-.481585-.0000024-.222213.095222-.561196.2889507-1.011326l.7946139-1.8300212h3.4192485c.00983-.0059.014168-.0182.02408-.02408.079406-.04671.2163605-.09525.3130299-.144474-.1352104.04893-.2747158.07224-.4093466.07224-.3187776.000007-.6474904-.147615-.8668518-.385268h-.024079c-.040257-.0455-.0645-.0939-.096317-.144474h-2.0948917l1.9985748-4.6713678.9150103 2.1671294c.421894-.2903167.9392306-.4478989 1.5169893-.5056676l-1.8059409-4.3342586z"/></svg>